<?xml version="1.0" encoding="utf-8"?>
<!-- Generator: Adobe Illustrator 25.0.0, SVG Export Plug-In . SVG Version: 6.00 Build 0)  -->
<svg version="1.1" id="Layer_2" xmlns="http://www.w3.org/2000/svg" xmlns:xlink="http://www.w3.org/1999/xlink" x="0px" y="0px"
	 width="538px" height="568px" viewBox="0 0 538 568" style="enable-background:new 0 0 538 568;" xml:space="preserve">
<style type="text/css">
	.st0{fill:#B1BBBC;}
</style>
<path class="st0" d="M406.4,275.6c-11.1-0.1-21,0.8-29.9,2.3l-25.7-70.1l-50.3-106l-52.7-72.6l-66.3-13.1l-139,106.7l122.2-28.5
	l33.2,3.9l-21.4,22.4l16,79.7l56.9-7.4l-63,28.8L166,310.3l-1.1,4.3c-91.6,1-148.2-17-148.2-17s61.9,111.5,147.1,122.4
	c85.3,10.9,144-7.7,179.4-15.6c46.4-10.4,116.3-44.6,151.4-64.9C529.6,319.4,479.8,276.1,406.4,275.6z"/>
<g>
	<g>
		<path class="st0" d="M345,412.5c-4.3,1-9,2.1-13.9,3.3c-27.7,6.7-65.6,15.9-115.4,15.9c-17.4,0-35.2-1.2-52.9-3.4
			c-5.7-0.7-11.2-1.7-16.5-3c8.3,66,64.6,117.1,132.9,117.1c74,0,134-60,134-134c0-6.3-0.5-12.6-1.3-18.7
			C388.4,399.6,364.8,408.1,345,412.5z"/>
	</g>
</g>
</svg>
