<?xml version="1.0" encoding="utf-8"?>
<!-- Generator: Adobe Illustrator 16.0.3, SVG Export Plug-In . SVG Version: 6.00 Build 0)  -->
<!DOCTYPE svg PUBLIC "-//W3C//DTD SVG 1.1//EN" "http://www.w3.org/Graphics/SVG/1.1/DTD/svg11.dtd">
<svg version="1.1" xmlns="http://www.w3.org/2000/svg" xmlns:xlink="http://www.w3.org/1999/xlink" x="0px" y="0px" width="64px"
	 height="64px" viewBox="0 0 64 64" enable-background="new 0 0 64 64" xml:space="preserve">
<g id="Layer_1">
	<path fill="#E6E6E6" d="M42.279,53.639c-3.633,0-7.761-1.193-10.037-2.902l-1.465-1.102l2.514-7.321l2.629,1.823
		c1.91,1.324,4.403,2.114,6.664,2.114c1.438,0,5.809-1.414,5.809-4.92c0-1.715-1.397-4.215-5.949-6.187
		c-2.567-1.021-10.553-3.173-10.553-12.358c0-7.6,5.649-13.115,13.433-13.115c4.549,0,7.42,1.398,8.728,2.231l1.709,1.088
		l-2.753,7.09l-2.481-1.523c-1.115-0.684-2.95-1.5-5.354-1.5c-2.997,0-5.101,3.664-5.101,5.157c0,1.586,1.402,3.821,6.31,5.958
		c4.768,2.071,9.208,4.474,9.208,12.755C55.589,47.77,52.187,53.639,42.279,53.639z"/>
</g>
<g id="Layer_3" display="none">
	<text transform="matrix(0.902 0 0 1 30.4648 53.3604)" display="inline" fill="#E6E6E6" font-family="'Tahoma'" font-size="58">S</text>
</g>
<g id="svg2646">
	<path fill="none" stroke="#E6E6E6" stroke-width="7" stroke-miterlimit="10" d="M60.134,53.703c0,2.996-2.429,5.425-5.426,5.425
		H33.007c-2.997,0-5.426-2.429-5.426-5.425V10.299c0-2.997,2.429-5.426,5.426-5.426h21.701c2.997,0,5.426,2.429,5.426,5.426V53.703z
		"/>
	<g id="layer2" inkscape:label="Pfeil" inkscape:groupmode="layer">
		<g id="rect2714" sodipodi:nodetypes="cccccccc">
			<polygon fill="#E6E6E6" points="16.813,44.745 -1.5,44.745 -1.5,19.251 16.813,19.25 16.813,0.844 43.721,31.999 16.813,63.16 
							"/>
			<path fill="#2C2D32" d="M18.313,4.875l23.426,27.124L18.313,59.128V43.245H0V20.751l18.313-0.001V4.875 M15.313-3.188v8.063
				V17.75L0,17.751l-3,0v3v22.494v3h3h15.313v12.883v8.064l5.271-6.104L44.01,33.96l1.693-1.961l-1.693-1.961L20.584,2.915
				L15.313-3.188L15.313-3.188z"/>
		</g>
	</g>
</g>
</svg>
