<?xml version="1.0" encoding="utf-8"?>
<!-- Generator: Adobe Illustrator 16.0.3, SVG Export Plug-In . SVG Version: 6.00 Build 0)  -->
<!DOCTYPE svg PUBLIC "-//W3C//DTD SVG 1.1//EN" "http://www.w3.org/Graphics/SVG/1.1/DTD/svg11.dtd">
<svg version="1.1" xmlns="http://www.w3.org/2000/svg" xmlns:xlink="http://www.w3.org/1999/xlink" x="0px" y="0px" width="64px"
	 height="64px" viewBox="0 0 64 64" enable-background="new 0 0 64 64" xml:space="preserve">
<g id="Layer_1">
	<path fill="#E6E6E6" d="M31.89,22.79c0-0.7,0.05-1.37,0.14-2.03L41.74,32l-1.851,2.15C36.55,32.71,31.89,29.8,31.89,22.79z"/>
	<path fill="#E6E6E6" d="M55.59,40.93c0,6.84-3.399,12.71-13.31,12.71c-3.63,0-7.761-1.189-10.04-2.899l-1.16-0.88l-0.3-0.23
		l0.3-0.87v0.17l4.4-5.09l0.439,0.3c1.91,1.32,4.4,2.11,6.66,2.11c1.439,0,5.81-1.41,5.81-4.92c0-1.66-1.31-4.07-5.56-6.01
		l1.18-1.36L45.7,32l-1.69-1.96L33,17.29c2.01-4.62,6.59-7.62,12.32-7.62c4.55,0,7.42,1.4,8.729,2.23l1.71,1.09l-2.75,7.09
		l-2.479-1.52c-1.12-0.68-2.95-1.5-5.36-1.5c-3,0-5.1,3.66-5.1,5.16c0,1.58,1.399,3.82,6.31,5.95
		C51.15,30.25,55.59,32.65,55.59,40.93z"/>
</g>
<g id="Layer_3" display="none">
	<text transform="matrix(0.902 0 0 1 30.4648 53.3604)" display="inline" fill="#E6E6E6" font-family="'Tahoma'" font-size="58">S</text>
</g>
<g id="svg2646">
	<path fill="#E6E6E6" d="M24.08,11.56v40.89l7-8.11V19.66L24.08,11.56z M54.71,1.37h-21.7c-3.95,0-7.3,2.57-8.48,6.12l6.55,7.58
		V10.3c0-1.06,0.86-1.93,1.93-1.93h21.7c1.06,0,1.92,0.87,1.92,1.93v43.4c0,1.06-0.86,1.93-1.92,1.93h-21.7
		c-1.07,0-1.93-0.87-1.93-1.93v-4.94l-0.1,0.29l-6.45,7.46c1.18,3.55,4.53,6.12,8.48,6.12h21.7c4.92,0,8.92-4.01,8.92-8.93V10.3
		C63.63,5.38,59.63,1.37,54.71,1.37z"/>
	<g id="layer2" inkscape:label="Pfeil" inkscape:groupmode="layer">
		<g>
			<polygon fill="#E6E6E6" points="41.74,32 39.89,34.15 31.08,44.34 24.08,52.45 18.31,59.13 18.31,43.25 0,43.25 0,20.75 
				18.31,20.75 18.31,4.88 24.08,11.56 31.08,19.66 32.03,20.76 			"/>
			<path id="rect2714_1_" fill="#2C2D32" d="M30.98,49.05l0.1-0.12v-0.17L30.98,49.05z"/>
		</g>
	</g>
</g>
</svg>
