<?xml version="1.0" encoding="utf-8"?>
<!-- Generator: Adobe Illustrator 16.0.3, SVG Export Plug-In . SVG Version: 6.00 Build 0)  -->
<!DOCTYPE svg PUBLIC "-//W3C//DTD SVG 1.1//EN" "http://www.w3.org/Graphics/SVG/1.1/DTD/svg11.dtd">
<svg version="1.1" id="Layer_1" xmlns="http://www.w3.org/2000/svg" xmlns:xlink="http://www.w3.org/1999/xlink" x="0px" y="0px"
	 width="64px" height="64px" viewBox="0 0 64 64" enable-background="new 0 0 64 64" xml:space="preserve">
<g id="Layer_2" display="none">
	<g display="inline">
		<path fill="#E6E6E6" d="M43.389,50.418c-3.318,0-7.088-0.969-9.168-2.355l-1.337-0.893l2.296-7.622l2.4,1.479
			c1.745,1.074,4.021,1.716,6.087,1.716c1.312,0,4.36-0.308,4.36-3.154c0-1.392-0.332-2.581-4.49-4.183
			c-2.344-0.828-9.637-3.414-9.637-10.87c0-6.168,5.16-10.645,12.268-10.645c4.155,0,6.777,1.135,7.971,1.811l1.561,0.884
			l-2.514,7.434l-2.267-1.236c-1.019-0.555-2.694-1.217-4.89-1.217c-2.737,0-3.713,1.295-3.713,2.507
			c0,1.287,0.336,2.261,4.817,3.996c4.354,1.681,9.354,4.471,9.354,11.194C56.488,44.814,52.438,50.418,43.389,50.418z"/>
	</g>
</g>
<path fill="#E6E6E6" d="M54.71,1.37h-21.7c-3.95,0-7.3,2.57-8.48,6.12l6.55,7.58V10.3c0-1.06,0.86-1.93,1.93-1.93h21.7
	c1.06,0,1.92,0.87,1.92,1.93v43.4c0,1.06-0.86,1.93-1.92,1.93h-21.7c-1.07,0-1.93-0.87-1.93-1.93V48.93l-6.55,7.58
	c1.18,3.55,4.53,6.12,8.48,6.12h21.7c4.92,0,8.92-4.01,8.92-8.93V10.3C63.63,5.38,59.63,1.37,54.71,1.37z"/>
<g id="layer2" inkscape:label="Pfeil" inkscape:groupmode="layer">
	<g>
		<polygon fill="#E6E6E6" points="41.74,32 31.08,44.34 24.08,52.45 18.31,59.13 18.31,43.25 0,43.25 0,20.75 18.31,20.75 
			18.31,4.88 24.08,11.56 31.08,19.66 		"/>
	</g>
</g>
</svg>
