<?xml version="1.0" encoding="utf-8"?>
<!-- Generator: Adobe Illustrator 16.0.3, SVG Export Plug-In . SVG Version: 6.00 Build 0)  -->
<!DOCTYPE svg PUBLIC "-//W3C//DTD SVG 1.1//EN" "http://www.w3.org/Graphics/SVG/1.1/DTD/svg11.dtd">
<svg version="1.1" xmlns="http://www.w3.org/2000/svg" xmlns:xlink="http://www.w3.org/1999/xlink" x="0px" y="0px" width="64px"
	 height="64px" viewBox="0 0 64 64" enable-background="new 0 0 64 64" xml:space="preserve">
<g id="Layer_2" display="none">
	<g display="inline">
		<path fill="#E6E6E6" d="M43.389,50.418c-3.319,0-7.088-0.969-9.168-2.355l-1.337-0.893l2.295-7.622l2.401,1.479
			c1.745,1.074,4.021,1.716,6.087,1.716c1.311,0,4.36-0.308,4.36-3.154c0-1.391-0.331-2.581-4.49-4.183
			c-2.344-0.828-9.636-3.414-9.636-10.87c0-6.168,5.159-10.645,12.267-10.645c4.155,0,6.777,1.135,7.97,1.811l1.561,0.884
			l-2.513,7.434l-2.267-1.236c-1.019-0.555-2.694-1.217-4.89-1.217c-2.737,0-3.712,1.295-3.712,2.507
			c0,1.287,0.336,2.261,4.817,3.996c4.354,1.681,9.354,4.471,9.354,11.194C56.488,44.815,52.438,50.418,43.389,50.418z"/>
	</g>
</g>
<g id="svg2646" xmlns:dc="http://purl.org/dc/elements/1.1/" xmlns:cc="http://creativecommons.org/ns#" xmlns:rdf="http://www.w3.org/1999/02/22-rdf-syntax-ns#" xmlns:svg="http://www.w3.org/2000/svg" xmlns:sodipodi="http://sodipodi.sourceforge.net/DTD/sodipodi-0.dtd" xmlns:inkscape="http://www.inkscape.org/namespaces/inkscape" sodipodi:version="0.32" inkscape:version="0.46" sodipodi:docname="add_to_sideboard.svg" inkscape:output_extension="org.inkscape.output.svg.inkscape">
	<defs>
		
		
			<inkscape:perspective  sodipodi:type="inkscape:persp3d" inkscape:vp_x="0 : 526.18109 : 1" inkscape:vp_y="0 : 1000 : 0" inkscape:vp_z="744.09448 : 526.18109 : 1" id="perspective2654" inkscape:persp3d-origin="372.04724 : 350.78739 : 1">
			</inkscape:perspective>
	</defs>
	
		<sodipodi:namedview  pagecolor="#ffffff" bordercolor="#666666" borderopacity="1.0" inkscape:zoom="7.625" inkscape:cx="-15.396123" inkscape:cy="31.722987" showgrid="false" id="base" inkscape:pageopacity="0.0" inkscape:pageshadow="2" inkscape:document-units="px" inkscape:current-layer="layer2" inkscape:window-width="1272" inkscape:window-height="723" inkscape:window-x="0" inkscape:window-y="25">
		</sodipodi:namedview>
	<g id="layer1" inkscape:label="Ebene 1" inkscape:groupmode="layer">
	</g>
	<path fill="none" stroke="#E6E6E6" stroke-width="7" stroke-miterlimit="10" d="M60.134,53.703c0,2.996-2.429,5.425-5.426,5.425
		H33.007c-2.997,0-5.426-2.429-5.426-5.425V10.299c0-2.997,2.429-5.426,5.426-5.426h21.701c2.997,0,5.426,2.429,5.426,5.426V53.703z
		"/>
	<g id="layer2" inkscape:label="Pfeil" inkscape:groupmode="layer">
		<g id="rect2714" sodipodi:nodetypes="cccccccc">
			<polygon fill="#E6E6E6" points="16.813,44.745 -1.5,44.745 -1.5,19.251 16.813,19.25 16.813,0.844 43.721,31.999 16.813,63.16 
							"/>
			<path fill="#2C2D32" d="M18.313,4.875l23.426,27.124L18.313,59.128V43.245H0V20.751l18.313-0.001V4.875 M15.313-3.188v8.063
				V17.75L0,17.751l-3,0v3v22.494v3h3h15.313v12.883v8.064l5.271-6.104L44.01,33.96l1.693-1.961l-1.693-1.961L20.584,2.915
				L15.313-3.188L15.313-3.188z"/>
		</g>
	</g>
</g>
</svg>
