<?xml version="1.0" encoding="utf-8"?>
<!-- Generator: Adobe Illustrator 16.0.3, SVG Export Plug-In . SVG Version: 6.00 Build 0)  -->
<!DOCTYPE svg PUBLIC "-//W3C//DTD SVG 1.1//EN" "http://www.w3.org/Graphics/SVG/1.1/DTD/svg11.dtd">
<svg version="1.1" id="Layer_1" xmlns="http://www.w3.org/2000/svg" xmlns:xlink="http://www.w3.org/1999/xlink" x="0px" y="0px"
	 width="449.5px" height="449.5px" viewBox="0 0 449.5 449.5" enable-background="new 0 0 449.5 449.5" xml:space="preserve">
<g id="Layer_2">
</g>
<g id="svg2" xmlns:dc="http://purl.org/dc/elements/1.1/" xmlns:cc="http://creativecommons.org/ns#" xmlns:rdf="http://www.w3.org/1999/02/22-rdf-syntax-ns#" xmlns:svg="http://www.w3.org/2000/svg" xmlns:sodipodi="http://sodipodi.sourceforge.net/DTD/sodipodi-0.dtd" xmlns:inkscape="http://www.inkscape.org/namespaces/inkscape" inkscape:version="0.91 r13725" sodipodi:docname="cockatrice-original.svg">
	<path id="path4173-2" inkscape:connector-curvature="0" fill="#313236" d="M167.231,406.004
		c-1.054-6.621-4.011-13.385-6.817-15.592c-2.829-2.227-7.14-2.036-10.086,0.442c-3.028,2.549-3.962,4.3-5,9.373l-0.845,4.124
		l-1.812-2.544c-2.675-3.755-2.465-8.474,0.619-13.937c2.894-5.127,3.055-6.612,0.716-6.612c-8.076-0.008-40.474-1.803-49.289-2.731
		c-55.987-5.918-83.142-23.849-83.915-55.412c-0.208-8.485,0.654-10.396,8.552-18.935c5.844-6.313,9.081-8.278,3.846-2.335
		c-1.724,1.959-4.204,5.8-5.51,8.536c-2.347,4.921-2.366,5.045-1.549,11.093c1.085,8.047,3.25,13.464,7.81,19.555
		c9.394,12.545,27.327,21.181,51.072,24.601c7.719,1.11,31.874,1.656,31.874,0.72c0-0.242-1.661-2.385-3.69-4.759
		c-21.41-25.037-24.254-58.111-6.904-80.257c10.331-13.19,25.889-21.093,46.928-23.834c2.191-0.285,3.802-0.81,3.583-1.166
		c-0.22-0.354-3.501-2.248-7.29-4.205c-23.367-12.068-44.396-31.15-59.863-54.331c-6.029-9.034-16.723-30.49-20.989-42.111
		c-4.726-12.874-9.083-27.904-11.527-39.77c-2.045-9.929-3.676-15.054-5.451-17.138c-1.539-1.807-1.243-2.268,0.93-1.446
		c3.026,1.152,6.42,0.936,6.42-0.408c0-0.633-1.541-4.071-3.426-7.645c-1.889-3.579-3.425-7.537-3.425-8.811v-2.318l2.375,1.998
		c1.306,1.099,3.329,2.491,4.493,3.092c3.341,1.729,3.35-0.183,0.031-7.046c-4.591-9.495-6.381-17.247-4.884-21.146
		c0.36-0.939,0.787-0.388,1.575,2.029c3.559,10.917,18.642,35.716,28.153,46.285c5.451,6.061,38.373,33.575,54.637,45.666
		c17.231,12.811,24.871,25.591,33.815,56.559c8.808,30.495,13.717,40.586,21.279,43.753c3.738,1.568,6.682,0.576,11.315-3.809
		c6.689-6.326,9.327-15.024,7.822-25.796c-1.052-7.519-2.271-11.54-8.497-28.032c-2.923-7.744-6.166-16.993-7.208-20.553
		c-2.353-8.055-3.087-17.898-1.832-24.558c1.456-7.715,1.377-13.644-0.212-16.071c-1.597-2.436-1.256-3.903,1.799-7.748
		c2.601-3.275,2.709-4.103,1.001-7.701l-1.253-2.637l2.776-2.287c2.04-1.683,2.775-2.881,2.775-4.515
		c0-2.853,3.294-6.521,13.351-14.87c7.812-6.48,12.54-11.964,12.519-14.51c-0.022-2.799-1.167-3.536-4.857-3.125
		c-1.927,0.219-3.503,0.089-3.503-0.291c0-1.002,6.912-5.216,8.56-5.216c2.269,0,5.654,2.078,7.417,4.555
		c3.148,4.421,6.11,2.314,6.081-4.313c-0.021-4.63-2.074-9.199-5.381-11.982l-2.568-2.161l4.967,0.315
		c8.584,0.548,13.009,5.765,13.186,15.551c0.05,2.676,0.322,4.876,0.605,4.88c0.285,0.004,1.702-1.116,3.16-2.485
		c4.135-3.901,5.213-10.561,3.052-18.82l-0.502-1.901l1.726,1.522c3.409,3.013,4.191,5.602,4.211,13.868
		c0.014,6.271,0.268,8.074,1.342,9.327c0.723,0.85,1.822,1.547,2.438,1.547c3.105,0,6.24-6.91,7.169-15.802l0.539-5.127l1.719,2.664
		c2.123,3.29,1.818,6.144-1.395,13.313c-1.256,2.801-2.289,5.237-2.289,5.409s1.292,0.309,2.878,0.309
		c3.73,0,5.852-1.552,8.142-5.95c1.023-1.964,1.869-2.954,1.894-2.201c0.057,2.157-2.843,7.249-6.22,10.908
		c-1.706,1.853-2.921,3.551-2.688,3.778c0.452,0.451,6.992-0.675,9.129-1.572c1.771-0.741,1.695,0.47-0.179,2.842
		c-1.107,1.408-2.69,2.132-5.903,2.704c-9.714,1.733-10.565,3.289-5.509,10.069c2.612,3.502,5.241,9.642,5.336,12.481
		c0.054,1.467,4.787,6.157,12.914,12.788c9.487,7.742,14.851,13.129,15.923,15.999c0.43,1.151,0.66,2.093,0.511,2.093
		c-0.147,0-2.502-1.042-5.217-2.311c-7.189-3.367-12.775-4.227-20.429-3.142c-3.446,0.487-6.377,1.001-6.516,1.136
		c-0.505,0.508,2.937,9.598,5.764,15.222c2.604,5.184,2.773,5.846,1.577,6.229c-1.071,0.343-1.234,0.918-0.811,2.877
		c0.667,3.084,0.138,9.681-0.775,9.681c-0.377,0-0.686-0.796-0.686-1.77c0-0.968-1.953-5.682-4.345-10.467
		c-3.678-7.364-5.298-9.663-10.539-14.977c-3.406-3.454-6.639-6.28-7.182-6.28c-0.991,0-0.882,3.427,0.471,14.954
		c0.42,3.552,0.306,3.965-1.19,4.441c-1.941,0.615-4.881-1.024-7.661-4.272c-2.408-2.809-6.753-3.684-9.467-1.899
		c-1.076,0.704-2.467,2.872-3.241,5.047c-1.487,4.177-2.768,5.008-5.891,3.821c-7.614-2.894-7.708,1.162-0.366,15.357
		c0.805,1.546,1.459,3.657,1.459,4.693c0,1.332,0.788,2.366,2.704,3.55c3.69,2.279,5.167,4.739,4.692,7.78
		c-0.348,2.178,0.065,2.947,3.412,6.386c4.079,4.188,5.384,7.61,4.229,11.07c-0.6,1.785-0.309,2.411,2.347,5.067l3.029,3.03
		l0.265,7.988c0.247,7.562,0.387,8.17,2.658,11.297c1.323,1.817,2.72,3.307,3.122,3.307c0.391,0,3.411-3.596,6.705-7.99
		c11.025-14.722,27.97-30.019,46.314-41.811c11.167-7.177,32.135-17.669,58.689-29.355c40.087-17.642,60.041-28.82,73.267-41.031
		c6.211-5.737-0.624,4.602-8.881,13.427c-5.814,6.209-17.342,15.125-28.1,21.716c-8.407,5.153-14.728,8.406-48.847,25.16
		c-36.46,17.901-53.074,28.695-69.27,45.001c-8.764,8.826-14.376,16.094-20.937,27.109c-2.727,4.578-5.985,9.426-7.232,10.775
		c-3.085,3.326-3.331,8.109-0.675,13.305c1.778,3.479,1.778,3.597,0.062,3.146c-3.791-0.993-4.638,6.813-1.429,13.15
		c3.616,7.135,5.86,7.287,5.86,0.389c0-6.149,1.816-10.908,5.39-14.139c3.518-3.177,5.578-3.372,8.693-0.829l2.283,1.866
		l-3.567-0.132c-6.403-0.234-8.76,3.942-7.969,14.143c0.255,3.335,0.621,6.225,0.807,6.413c0.188,0.188,3.097-0.714,6.465-2.016
		c8.238-3.179,13.037-3.217,16.116-0.138c1.224,1.224,2.227,2.595,2.227,3.043c0,1.037,0.059,1.042-3.806-0.322
		c-9.568-3.372-16.727,0.332-21.708,11.24c-1.979,4.322-3.903,14.174-3.158,16.12c0.653,1.699,4.032,2.816,8.547,2.816
		c2.815,0,7.334-1.26,16.748-4.676c7.087-2.57,16.013-5.485,19.832-6.474c21.251-5.527,39.988-1.369,42.92,9.524
		c2.186,8.125-8.977,24.957-21.344,32.171c-8.638,5.043-23.157,8.862-38.034,10.009c-3.14,0.241-14.959,0.792-26.263,1.215
		c-30.659,1.158-43.531,2.855-57.008,7.525c-6.967,2.417-15.691,6.627-15.691,7.576c0,0.346,0.838,1.008,1.862,1.478
		c1.025,0.468,2.423,1.703,3.107,2.749c1.066,1.629,1.119,2.503,0.366,6.125c-0.481,2.324-1.111,4.229-1.399,4.229
		c-0.288,0-0.969-1.433-1.517-3.186c-2.935-9.408-11.988-13.513-21.656-9.825l-2.106,0.803l2.297,4.067
		c2.838,5.034,3.152,10.917,0.784,14.799c-0.83,1.361-1.607,2.471-1.728,2.471C168.237,411.705,167.73,409.139,167.231,406.004
		L167.231,406.004L167.231,406.004z M240.601,336.432c4.406-2.146,8.838-3.895,9.85-3.895c1.881,0,2.463-1.048,1.063-1.913
		c-0.429-0.266-2.164-2.357-3.861-4.651c-4.438-6.011-5.14-6.117-14.497-2.252c-4.338,1.794-9.429,4.035-11.314,4.981
		c-3.293,1.655-7.612,5.126-7.612,6.12c0,0.265,1.969,1.284,4.378,2.267c2.408,0.984,5.063,2.268,5.899,2.856
		C227.011,341.706,231.994,340.618,240.601,336.432L240.601,336.432L240.601,336.432z M228.313,319.223
		c3.77-1.089,10.013-3.51,13.878-5.38c8.064-3.901,9.338-5.537,9.338-11.985c0-4.837-1.982-8.355-6.04-10.724l-2.608-1.524
		l-1.572,2.178c-4.939,6.829-6.638,8.729-10.726,12.026c-2.483,1.999-6.749,4.965-9.48,6.591c-2.732,1.619-7.185,4.583-9.894,6.578
		c-4.327,3.185-4.742,3.699-3.425,4.265C210.375,322.344,221.184,321.282,228.313,319.223L228.313,319.223L228.313,319.223z"/>
</g>
</svg>
