<?xml version="1.0" encoding="utf-8"?>
<!-- Generator: Adobe Illustrator 16.0.3, SVG Export Plug-In . SVG Version: 6.00 Build 0)  -->
<!DOCTYPE svg PUBLIC "-//W3C//DTD SVG 1.1//EN" "http://www.w3.org/Graphics/SVG/1.1/DTD/svg11.dtd">
<svg version="1.1"
	 id="svg3715" xmlns:dc="http://purl.org/dc/elements/1.1/" xmlns:cc="http://creativecommons.org/ns#" xmlns:rdf="http://www.w3.org/1999/02/22-rdf-syntax-ns#" xmlns:svg="http://www.w3.org/2000/svg" xmlns:sodipodi="http://sodipodi.sourceforge.net/DTD/sodipodi-0.dtd" xmlns:inkscape="http://www.inkscape.org/namespaces/inkscape"
	 xmlns="http://www.w3.org/2000/svg" xmlns:xlink="http://www.w3.org/1999/xlink" x="0px" y="0px" width="600px" height="600px"
	 viewBox="0 0 600 600" enable-background="new 0 0 600 600" xml:space="preserve">
<defs>
	
	
		<inkscape:perspective  id="perspective3723" inkscape:vp_z="64 : 32 : 1" inkscape:vp_y="0 : 1000 : 0" inkscape:vp_x="0 : 32 : 1" sodipodi:type="inkscape:persp3d" inkscape:persp3d-origin="32 : 21.333333 : 1">
		</inkscape:perspective>
</defs>
<sodipodi:namedview  showgrid="true" inkscape:cy="25.822073" inkscape:cx="-10.082463" inkscape:zoom="5.5" borderopacity="1.0" bordercolor="#666666" pagecolor="#ffffff" id="base" inkscape:window-maximized="0" inkscape:window-y="25" inkscape:window-x="0" inkscape:window-height="949" inkscape:window-width="1280" inkscape:grid-bbox="true" inkscape:document-units="px" inkscape:current-layer="layer1" inkscape:pageshadow="2" inkscape:pageopacity="0.0">
	</sodipodi:namedview>
<g display="none">
	
		<linearGradient id="SVGID_1_" gradientUnits="userSpaceOnUse" x1="479.187" y1="-278.6135" x2="479.187" y2="-218.2136" gradientTransform="matrix(9.375 0 0 9.375 -4012.375 2628.877)">
		<stop  offset="0" style="stop-color:#6B6B6B"/>
		<stop  offset="0.471" style="stop-color:#686868"/>
		<stop  offset="0.8686" style="stop-color:#5D5D5D"/>
		<stop  offset="1" style="stop-color:#585858"/>
	</linearGradient>
	<path display="inline" fill="url(#SVGID_1_)" d="M480,583.125c-156.563,0-283.125-126.563-283.125-283.125
		c0-156.562,126.562-283.125,283.125-283.125S763.125,143.438,763.125,300C763.125,456.562,636.562,583.125,480,583.125z"/>
	<path display="inline" fill="#989898" d="M480,26.25c150.938,0,273.75,122.813,273.75,273.75
		c0,150.938-122.813,273.75-273.75,273.75S206.25,450.938,206.25,300C206.25,149.062,329.062,26.25,480,26.25 M480,7.5
		C318.75,7.5,187.5,138.75,187.5,300S318.75,592.5,480,592.5S772.5,461.25,772.5,300S641.25,7.5,480,7.5L480,7.5z"/>
</g>
<g>
	<path fill="#989898" d="M-244.688,276.563c0,48.75,0,96.563,0,145.313c0,4.688-0.938,10.313-2.813,14.063
		c-2.813,7.5-10.313,10.313-16.875,6.563c-3.75-1.875-7.5-4.688-10.313-7.5c-31.875-30.938-63.75-61.875-94.688-92.813
		c-2.813-2.813-4.688-3.75-8.438-3.75c-15,0-30,0-45,0c-12.188,0-17.813-5.625-17.813-17.813c0-29.062,0-58.124,0-86.249
		c0-11.25,5.625-16.875,16.875-16.875c15.938,0,30.938,0,46.875,0c1.875,0,4.688-0.938,6.563-2.813
		c31.875-30.938,63.75-61.875,95.625-93.75c4.688-3.75,8.438-8.438,15-8.438c7.5-0.938,12.188,1.875,15,8.438
		c0.938,3.75,1.875,7.5,1.875,11.25C-244.688,180-244.688,227.813-244.688,276.563L-244.688,276.563z"/>
	<path fill="#989898" d="M-46.875,276.563c-0.938,45.938-16.875,85.313-48.75,118.125c-12.188,12.187-26.25,22.5-42.188,30.937
		c-7.5,3.752-15,2.813-19.688-2.812c-4.688-4.688-5.625-13.126-0.938-18.75c1.875-2.813,4.688-4.688,7.5-5.625
		c29.063-15.938,51.563-39.375,63.75-70.313c16.875-44.063,13.125-86.25-13.125-126.563c-12.188-19.688-29.063-34.688-49.688-45
		c-4.688-2.813-9.375-6.563-10.313-12.188c-1.875-11.25,8.438-20.625,18.75-16.875c12.188,4.688,22.5,12.188,31.875,19.688
		c33.75,27.188,53.438,62.813,60,105.938c0,2.813,0.938,5.625,0.938,7.5C-47.813,267.188-47.813,271.875-46.875,276.563z"/>
	<path fill="#989898" d="M-107.813,282.188c-1.875,42.188-22.5,77.813-62.813,102.188c-7.5,4.688-15.938,2.813-20.625-3.75
		c-4.688-7.5-3.75-15,3.75-20.626c4.688-3.75,10.313-6.563,15-10.312c49.688-40.313,44.063-117.188-11.25-149.063
		c-6.563-3.75-11.25-8.438-10.313-16.875c0.938-9.375,10.313-15.938,19.688-12.188c13.125,5.625,24.375,15,34.688,26.25
		C-119.063,219.375-108.75,246.563-107.813,282.188z"/>
	<path fill="#989898" d="M-168.75,277.5c0,27.188-16.875,48.75-42.188,58.125c-9.375,2.813-17.813,0-20.625-8.438
		c-2.813-8.438,1.875-16.874,11.25-19.688c11.25-3.751,17.813-11.25,20.625-22.5c3.75-15-4.688-30-19.688-35.625
		c-4.688-1.875-9.375-3.75-11.25-8.438c-2.813-5.625-2.813-11.25,1.875-16.875s10.313-6.563,16.875-4.688
		C-187.5,226.875-168.75,251.25-168.75,277.5z"/>
</g>
<path fill="#989898" d="M-325.313,465c5.625,0,10.313,0,15.938,0c15.938,0,27.188,11.25,27.188,27.188c0,6.563,0,13.125,0,18.75
	c0.938,10.313,7.5,17.813,16.875,20.625c9.375,3.75,18.75,1.875,26.25-5.625c3.75-3.75,7.5-8.438,12.188-12.188
	c11.25-10.313,27.188-10.313,37.5,0c9.375,8.438,17.813,16.875,26.25,26.25c9.375,9.375,9.375,24.375,0.938,34.688
	c-3.75,4.688-8.438,8.438-13.125,13.125c-7.5,7.5-9.375,16.875-5.625,26.25c3.75,10.313,12.188,15.938,23.438,16.875
	c5.625,0,11.25,0,16.875,0c15,0,25.313,10.313,25.313,25.313c0,12.188,0,24.375,0,36.563c0,15-11.25,25.313-26.25,25.313
	c-5.625,0-12.188,0-17.813,0c-10.313,0.938-17.813,6.563-21.563,16.875c-3.75,9.375-1.875,18.75,5.625,26.25
	c3.75,3.75,7.5,7.5,11.25,11.25c9.375,10.313,11.25,25.313,1.875,35.625c-9.375,10.313-18.75,19.688-29.063,29.063
	c-10.313,8.438-26.25,7.5-35.625-0.938c-3.75-3.75-7.5-7.5-11.25-11.25c-8.438-8.438-17.813-10.313-29.063-6.563
	c-10.313,3.75-15.938,13.125-15.938,24.375c0,5.625,0,11.25,0,17.813c-0.938,14.063-12.188,24.375-26.25,24.375
	c-11.25,0-21.563,0-32.813,0c-15,0-26.25-10.313-27.188-25.313c0-5.625,0-12.188,0-17.813c0-11.25-5.625-18.75-15-22.5
	c-9.375-4.688-18.75-2.813-27.188,3.75c-3.75,3.75-7.5,7.5-12.188,11.25c-11.25,11.25-28.125,11.25-39.375,0
	c-8.438-7.5-16.875-15.938-24.375-24.375c-10.313-10.313-10.313-26.25,0-37.5c3.75-3.75,7.5-7.5,11.25-11.25
	c7.5-7.5,9.375-16.875,5.625-27.188c-3.75-9.375-11.25-15-22.5-15.938c-5.625,0-11.25,0-16.875,0
	c-17.813,0-29.063-11.25-29.063-29.063c0-10.313,0-19.688,0-30c0-15.938,11.25-27.188,27.188-28.125c5.625,0,11.25,0,16.875,0
	c11.25,0,19.688-5.625,23.438-15.938c3.75-10.313,1.875-19.688-5.625-27.188c-3.75-3.75-8.438-7.5-12.188-12.188
	c-9.375-11.25-9.375-26.25,0.938-36.563c7.5-7.5,15.938-15.938,23.438-23.438c12.188-12.188,28.125-12.188,41.25,0
	c3.75,3.75,6.563,7.5,10.313,10.313c7.5,7.5,16.875,9.375,27.188,4.688c10.313-4.687,15-12.188,15.938-23.438
	c0-7.5,0-14.063,0.938-21.563c1.875-13.125,13.125-22.5,26.25-22.5C-336.563,465-330.938,465-325.313,465z M-325.313,587.813
	c-48.75,0-88.125,39.375-88.125,88.125c0,48.749,39.375,88.125,88.125,88.125c47.813,0,88.125-39.375,88.125-87.188
	C-238.125,627.188-277.5,587.813-325.313,587.813z"/>
<g>
	<path fill="#989898" d="M-541.875-143.437c0.938-19.688,9.375-31.875,25.313-38.438c21.563-9.375,43.125-17.813,64.688-26.25
		c25.313-10.313,49.688-20.625,75-30.938c23.438-9.375,44.063-0.938,53.438,22.5c31.875,75.938,63.75,151.875,94.688,226.875
		c9.375,23.438,0.938,45-22.5,55.313c-45.938,19.688-92.813,38.438-138.75,57.188c-22.5,9.375-43.125,0-52.5-22.5
		c-31.875-75.938-63.75-152.813-94.688-228.75C-540-134.062-540.938-139.687-541.875-143.437z"/>
	<path fill="#989898" d="M-184.688-41.25c0-57.188,0-114.375,0-173.438c11.25,5.625,23.438,9.375,33.75,15.938
		c15.938,9.375,20.625,30,13.125,47.813c-7.5,16.875-14.063,34.688-21.563,51.563c-7.5,17.813-15,36.563-22.5,54.375
		C-182.813-43.125-183.75-42.187-184.688-41.25L-184.688-41.25z"/>
	<path fill="#989898" d="M-290.625-242.812c12.188,0,23.438-0.938,34.688,0c16.875,1.875,30,16.875,31.875,33.75
		c0,1.875,0,4.688,0,6.563c0,38.438,0,75.938,0,114.375c0,0.938,0,2.813,0,3.75H-225
		C-246.563-136.875-269.063-190.312-290.625-242.812z"/>
</g>
<g>
	<path fill="#989898" d="M-99.375,908.438c85.313,42.188,170.625,42.188,255.938,0c0,1.875,0,2.813,0,4.688
		c0,41.25,0,82.5,0,124.688c0,50.625-33.75,92.813-82.5,104.063c-3.75,0.938-8.438,1.875-12.188,1.875
		c-28.125,0-56.25,3.75-83.438-3.75c-45-12.188-76.875-53.438-76.875-100.313c0-42.188,0-84.375,0-126.563
		C-99.375,911.25-99.375,910.313-99.375,908.438z"/>
	<path fill="#989898" d="M32.812,766.875c21.563-0.938,43.125,0,62.813,10.313c38.438,19.688,59.063,50.625,60.938,93.75
		c0,7.5,0,15,0,21.563c0,1.875-0.938,3.75-2.813,4.688c-36.563,19.688-75,30.938-117.188,31.875c-0.938,0-1.875,0-3.75,0
		c0-9.375,0-17.813,0-27.188c0-0.938,1.875-1.875,2.813-2.813c10.313-4.688,15-12.188,15-23.438c0-18.75,0-37.5,0-56.25
		c0-11.25-4.688-18.75-15-23.438c-0.938-0.938-2.813-2.813-2.813-4.688C33.75,783.75,33.75,775.313,32.812,766.875L32.812,766.875z"
		/>
	<path fill="#989898" d="M23.437,766.875c0,8.438,0,16.875,0,24.375c0,2.813-0.938,4.688-3.75,5.625
		c-9.375,3.75-14.063,11.25-14.063,20.625c0,19.688,0,39.375,0,59.063c0,10.313,4.688,16.875,14.063,21.563
		c0.938,0.938,2.813,1.875,2.813,2.813c0,8.438,0,17.813,0,28.125c-13.125-0.938-25.313-1.875-36.563-3.75
		c-29.063-4.688-56.25-14.063-82.5-28.125c-2.813-1.875-3.75-2.813-3.75-6.563c0-15.938-0.938-31.875,3.75-47.813
		c13.125-45,53.438-75.938,100.313-76.875C11.25,766.875,17.812,766.875,23.437,766.875L23.437,766.875z"/>
	<path fill="#989898" d="M40.312,835.313c0,5.625,0,11.249,0,16.875c0,7.5-4.688,12.188-12.188,12.188
		c-6.563,0-12.188-4.688-12.188-12.188c0-11.25,0-23.438,0-34.688c0-7.5,4.688-12.188,11.25-12.188S39.375,810,39.375,817.5v0.938
		C40.312,825,40.312,829.688,40.312,835.313z"/>
</g>
<g>
	<path fill="#E6E6E6" d="M268.886,222.593c1.092,1.092,1.092,2.183,1.092,3.276c7.643,10.917,8.734,24.018,8.734,37.118
		c0,12.009,0,22.926,1.092,34.935c1.091,6.55,4.367,14.191,8.734,19.651c5.458,8.732,14.191,12.009,24.017,10.915
		c6.55,0,10.917,2.185,14.191,7.643c4.368,6.551,9.827,13.102,15.284,19.651c-10.917-2.184-21.834-5.459-31.659-6.55
		c-12.009-2.185-24.017-3.275-34.935,0c-21.834,5.458-37.118,22.926-40.393,48.035c-1.093,15.283,0,29.477-1.093,44.76
		c0,10.917,0,22.926-2.183,33.843c-3.277,17.468-15.284,25.11-31.661,27.293c-37.117,5.46-64.41-8.732-85.152-38.21
		c-15.283-21.834-24.017-48.034-27.292-74.235c-8.733-58.952,6.55-112.445,33.843-163.755
		c20.744-38.209,48.035-72.052,82.969-99.345c37.118-28.385,78.603-43.668,126.637-40.394c33.844,2.183,65.502,13.1,93.886,30.567
		c31.661,18.56,58.952,41.485,77.513,73.145c10.915,17.467,18.559,37.118,18.559,58.952c0,17.467-6.549,32.751-15.283,46.942
		c-18.561,28.385-43.667,50.219-73.145,65.502l0,0c-13.101,6.551-14.194,6.551-22.927-5.458
		c-14.192-18.56-28.384-37.116-42.577-56.768c-1.091-1.093-2.183-4.368-1.091-5.46c9.825-25.109-2.184-43.667-19.65-55.677
		c-16.376-10.917-34.935-16.376-54.585-17.467C283.077,222.593,276.527,222.593,268.886,222.593z M207.751,427.833
		c-1.093-16.375-7.644-32.753-25.11-42.577c-21.833-14.193-45.852-4.368-54.585,19.649c-7.641,21.835,3.277,50.218,22.928,61.136
		c8.733,5.457,18.56,7.642,28.384,4.366C197.924,466.042,207.751,449.666,207.751,427.833z M420.631,255.344
		c0,1.092,0,2.183,0,4.366c2.184,20.744,20.744,33.844,40.394,27.294c20.743-7.643,33.844-32.751,26.2-54.585
		c-5.459-16.376-22.924-24.018-39.3-18.56C432.642,219.319,420.631,235.693,420.631,255.344z M406.44,161.457
		c0-2.184,0-4.367,0-6.55c-3.276-25.109-27.293-37.118-48.034-24.017c-17.467,10.917-24.017,36.026-14.193,53.494
		c8.734,16.375,27.294,21.834,43.668,13.101C399.89,188.751,406.44,176.74,406.44,161.457z M233.952,161.457
		c0,15.284,8.734,30.568,19.651,38.211c15.284,9.825,32.751,4.367,38.211-13.1c6.55-16.377,0-39.302-14.193-50.219
		c-17.467-13.1-37.118-6.55-42.578,14.192C235.042,154.906,235.042,158.183,233.952,161.457z M212.118,243.336
		c0-21.834-22.926-40.394-44.761-34.935c-14.191,3.275-22.925,16.375-21.833,29.476c2.183,18.561,18.56,33.844,37.118,33.844
		C199.017,271.72,212.118,259.71,212.118,243.336z"/>
	<path fill="#E6E6E6" d="M491.593,496.61c-4.367,3.276-8.733,6.549-14.192,10.916c-44.76-58.953-89.52-116.813-134.28-175.764
		c4.367-3.275,8.734-6.55,14.193-10.917C402.073,378.706,446.833,437.658,491.593,496.61z"/>
	<path fill="#E6E6E6" d="M292.903,238.969c19.65,2.184,38.211,6.55,51.311,22.926c9.825,12.01,7.642,30.567-5.459,41.486
		c-3.277,3.275-7.644,5.458-10.917,8.731c-10.917,7.646-29.477,1.092-32.751-12.008c-2.184-6.55-2.184-14.193-2.184-21.834
		C292.903,265.169,292.903,252.07,292.903,238.969z"/>
</g>
</svg>
