<?xml version="1.0" encoding="utf-8"?>
<!-- Generator: Adobe Illustrator 16.0.3, SVG Export Plug-In . SVG Version: 6.00 Build 0)  -->
<!DOCTYPE svg PUBLIC "-//W3C//DTD SVG 1.1//EN" "http://www.w3.org/Graphics/SVG/1.1/DTD/svg11.dtd">
<svg version="1.1"
	 id="svg3715" xmlns:dc="http://purl.org/dc/elements/1.1/" xmlns:cc="http://creativecommons.org/ns#" xmlns:rdf="http://www.w3.org/1999/02/22-rdf-syntax-ns#" xmlns:svg="http://www.w3.org/2000/svg" xmlns:sodipodi="http://sodipodi.sourceforge.net/DTD/sodipodi-0.dtd" xmlns:inkscape="http://www.inkscape.org/namespaces/inkscape"
	 xmlns="http://www.w3.org/2000/svg" xmlns:xlink="http://www.w3.org/1999/xlink" x="0px" y="0px" width="600px" height="600px"
	 viewBox="0 0 600 600" enable-background="new 0 0 600 600" xml:space="preserve">
<defs>
	
	
		<inkscape:perspective  id="perspective3723" inkscape:vp_z="64 : 32 : 1" inkscape:vp_y="0 : 1000 : 0" inkscape:vp_x="0 : 32 : 1" sodipodi:type="inkscape:persp3d" inkscape:persp3d-origin="32 : 21.333333 : 1">
		</inkscape:perspective>
</defs>
<sodipodi:namedview  showgrid="true" inkscape:cy="25.822073" inkscape:cx="-10.082463" inkscape:zoom="5.5" borderopacity="1.0" bordercolor="#666666" pagecolor="#ffffff" id="base" inkscape:window-maximized="0" inkscape:window-y="25" inkscape:window-x="0" inkscape:window-height="949" inkscape:window-width="1280" inkscape:grid-bbox="true" inkscape:document-units="px" inkscape:current-layer="layer1" inkscape:pageshadow="2" inkscape:pageopacity="0.0">
	</sodipodi:namedview>
<g display="none">
	
		<linearGradient id="SVGID_1_" gradientUnits="userSpaceOnUse" x1="932.2305" y1="573.2175" x2="932.2305" y2="512.8171" gradientTransform="matrix(9.375 0 0 -9.375 -8259.6641 5390.7871)">
		<stop  offset="0" style="stop-color:#6B6B6B"/>
		<stop  offset="0.471" style="stop-color:#686868"/>
		<stop  offset="0.8686" style="stop-color:#5D5D5D"/>
		<stop  offset="1" style="stop-color:#585858"/>
	</linearGradient>
	<path display="inline" fill="url(#SVGID_1_)" d="M480,583.125c-156.563,0-283.125-126.563-283.125-283.125
		c0-156.562,126.562-283.125,283.125-283.125S763.125,143.438,763.125,300C763.125,456.562,636.562,583.125,480,583.125z"/>
	<path display="inline" fill="#989898" d="M480,26.25c150.938,0,273.75,122.813,273.75,273.75
		c0,150.938-122.813,273.75-273.75,273.75S206.25,450.938,206.25,300C206.25,149.062,329.062,26.25,480,26.25 M480,7.5
		C318.75,7.5,187.5,138.75,187.5,300S318.75,592.5,480,592.5S772.5,461.25,772.5,300S641.25,7.5,480,7.5L480,7.5z"/>
</g>
<g>
	<path fill="#989898" d="M-244.688,276.563c0,48.75,0,96.563,0,145.313c0,4.688-0.938,10.313-2.813,14.063
		c-2.813,7.5-10.313,10.313-16.875,6.563c-3.75-1.875-7.5-4.688-10.313-7.5c-31.875-30.938-63.75-61.875-94.688-92.813
		c-2.813-2.813-4.688-3.75-8.438-3.75c-15,0-30,0-45,0c-12.188,0-17.813-5.625-17.813-17.813c0-29.062,0-58.124,0-86.249
		c0-11.25,5.625-16.875,16.875-16.875c15.938,0,30.938,0,46.875,0c1.875,0,4.688-0.938,6.563-2.813
		c31.875-30.938,63.75-61.875,95.625-93.75c4.688-3.75,8.438-8.438,15-8.438c7.5-0.938,12.188,1.875,15,8.438
		c0.938,3.75,1.875,7.5,1.875,11.25C-244.688,180-244.688,227.813-244.688,276.563L-244.688,276.563z"/>
	<path fill="#989898" d="M-46.875,276.563c-0.938,45.938-16.875,85.313-48.75,118.125c-12.188,12.187-26.25,22.5-42.188,30.937
		c-7.5,3.753-15,2.813-19.688-2.812c-4.688-4.688-5.625-13.126-0.938-18.75c1.875-2.813,4.688-4.688,7.5-5.625
		c29.063-15.938,51.563-39.375,63.75-70.313c16.875-44.063,13.125-86.25-13.125-126.563c-12.188-19.688-29.063-34.688-49.688-45
		c-4.688-2.813-9.375-6.563-10.313-12.188c-1.875-11.25,8.438-20.625,18.75-16.875c12.188,4.688,22.5,12.188,31.875,19.688
		c33.75,27.188,53.438,62.813,60,105.938c0,2.813,0.938,5.625,0.938,7.5C-47.813,267.188-47.813,271.875-46.875,276.563z"/>
	<path fill="#989898" d="M-107.813,282.188c-1.875,42.188-22.5,77.813-62.813,102.188c-7.5,4.688-15.938,2.813-20.625-3.75
		c-4.688-7.5-3.75-15,3.75-20.626c4.688-3.75,10.313-6.563,15-10.312c49.688-40.313,44.063-117.188-11.25-149.063
		c-6.563-3.75-11.25-8.438-10.313-16.875c0.938-9.375,10.313-15.938,19.688-12.188c13.125,5.625,24.375,15,34.688,26.25
		C-119.063,219.375-108.75,246.563-107.813,282.188z"/>
	<path fill="#989898" d="M-168.75,277.5c0,27.188-16.875,48.75-42.188,58.125c-9.375,2.813-17.813,0-20.625-8.438
		c-2.813-8.438,1.875-16.874,11.25-19.688c11.25-3.751,17.813-11.25,20.625-22.5c3.75-15-4.688-30-19.688-35.625
		c-4.688-1.875-9.375-3.75-11.25-8.438c-2.813-5.625-2.813-11.25,1.875-16.875s10.313-6.563,16.875-4.688
		C-187.5,226.875-168.75,251.25-168.75,277.5z"/>
</g>
<path fill="#989898" d="M-325.313,465c5.625,0,10.313,0,15.938,0c15.938,0,27.188,11.25,27.188,27.188c0,6.563,0,13.125,0,18.75
	c0.938,10.313,7.5,17.813,16.875,20.625c9.375,3.75,18.75,1.875,26.25-5.625c3.75-3.75,7.5-8.438,12.188-12.188
	c11.25-10.313,27.188-10.313,37.5,0c9.375,8.438,17.813,16.875,26.25,26.25c9.375,9.375,9.375,24.375,0.938,34.688
	c-3.75,4.688-8.438,8.438-13.125,13.125c-7.5,7.5-9.375,16.875-5.625,26.25c3.75,10.313,12.188,15.938,23.438,16.875
	c5.625,0,11.25,0,16.875,0c15,0,25.313,10.313,25.313,25.313c0,12.188,0,24.375,0,36.563c0,15-11.25,25.313-26.25,25.313
	c-5.625,0-12.188,0-17.813,0c-10.313,0.938-17.813,6.563-21.563,16.875c-3.75,9.375-1.875,18.75,5.625,26.25
	c3.75,3.75,7.5,7.5,11.25,11.25c9.375,10.313,11.25,25.313,1.875,35.625c-9.375,10.313-18.75,19.688-29.063,29.063
	c-10.313,8.438-26.25,7.5-35.625-0.938c-3.75-3.75-7.5-7.5-11.25-11.25c-8.438-8.438-17.813-10.313-29.063-6.563
	c-10.313,3.75-15.938,13.125-15.938,24.375c0,5.625,0,11.25,0,17.813c-0.938,14.063-12.188,24.375-26.25,24.375
	c-11.25,0-21.563,0-32.813,0c-15,0-26.25-10.313-27.188-25.313c0-5.625,0-12.188,0-17.813c0-11.25-5.625-18.75-15-22.5
	c-9.375-4.688-18.75-2.813-27.188,3.75c-3.75,3.75-7.5,7.5-12.188,11.25c-11.25,11.25-28.125,11.25-39.375,0
	c-8.438-7.5-16.875-15.938-24.375-24.375c-10.313-10.313-10.313-26.25,0-37.5c3.75-3.75,7.5-7.5,11.25-11.25
	c7.5-7.5,9.375-16.875,5.625-27.188c-3.75-9.375-11.25-15-22.5-15.938c-5.625,0-11.25,0-16.875,0
	c-17.813,0-29.063-11.25-29.063-29.063c0-10.313,0-19.688,0-30c0-15.938,11.25-27.188,27.188-28.125c5.625,0,11.25,0,16.875,0
	c11.25,0,19.688-5.625,23.438-15.938c3.75-10.313,1.875-19.688-5.625-27.188c-3.75-3.75-8.438-7.5-12.188-12.188
	c-9.375-11.25-9.375-26.25,0.938-36.563c7.5-7.5,15.938-15.938,23.438-23.438c12.188-12.188,28.125-12.188,41.25,0
	c3.75,3.75,6.563,7.5,10.313,10.313c7.5,7.5,16.875,9.375,27.188,4.688c10.313-4.687,15-12.188,15.938-23.438
	c0-7.5,0-14.063,0.938-21.563c1.875-13.125,13.125-22.5,26.25-22.5C-336.563,465-330.938,465-325.313,465z M-325.313,587.813
	c-48.75,0-88.125,39.375-88.125,88.125c0,48.749,39.375,88.125,88.125,88.125c47.813,0,88.125-39.375,88.125-87.188
	C-238.125,627.188-277.5,587.813-325.313,587.813z"/>
<path fill="#E6E6E6" d="M77.493,202.5c1.027-21.548,10.261-34.885,27.704-42.069c23.599-10.26,47.198-19.495,70.797-28.729
	c27.702-11.287,54.38-22.572,82.083-33.859c25.651-10.261,48.224-1.028,58.484,24.625c34.885,83.108,69.771,166.217,103.63,248.3
	c10.26,25.651,1.027,49.249-24.625,60.536c-50.277,21.548-101.58,42.067-151.853,62.59c-24.625,10.26-47.198,0-57.458-24.625
	c-34.886-83.11-69.771-167.245-104.656-250.353C79.544,212.76,78.519,206.604,77.493,202.5z"/>
<path fill="#E6E6E6" d="M467.386,314.337c0-62.588,0-125.176,0-189.817c12.313,6.157,25.652,10.261,36.939,17.443
	c17.442,10.26,22.572,32.833,14.363,52.329c-8.208,18.468-15.393,37.963-23.601,56.432c-8.207,19.497-16.416,40.017-24.625,59.51
	C469.439,312.284,469.439,313.311,467.386,314.337C468.411,315.363,468.411,314.337,467.386,314.337z"/>
<path fill="#E6E6E6" d="M351.443,93.74c13.339,0,25.652-1.026,37.965,0c18.468,2.052,32.833,18.468,34.885,36.937
	c0,2.053,0,5.131,0,7.183c0,42.068,0,83.11,0,125.177c0,1.026,0,3.079,0,4.104h-1.027
	C399.667,209.681,376.068,151.198,351.443,93.74z"/>
</svg>
