<?xml version="1.0" encoding="utf-8"?>
<!-- Generator: Adobe Illustrator 16.0.3, SVG Export Plug-In . SVG Version: 6.00 Build 0)  -->
<!DOCTYPE svg PUBLIC "-//W3C//DTD SVG 1.1//EN" "http://www.w3.org/Graphics/SVG/1.1/DTD/svg11.dtd">
<svg version="1.1"
	 id="svg3715" xmlns:dc="http://purl.org/dc/elements/1.1/" xmlns:cc="http://creativecommons.org/ns#" xmlns:rdf="http://www.w3.org/1999/02/22-rdf-syntax-ns#" xmlns:svg="http://www.w3.org/2000/svg" xmlns:sodipodi="http://sodipodi.sourceforge.net/DTD/sodipodi-0.dtd" xmlns:inkscape="http://www.inkscape.org/namespaces/inkscape"
	 xmlns="http://www.w3.org/2000/svg" xmlns:xlink="http://www.w3.org/1999/xlink" x="0px" y="0px" width="600px" height="600px"
	 viewBox="0 0 600 600" enable-background="new 0 0 600 600" xml:space="preserve">
<defs>
	
	
		<inkscape:perspective  id="perspective3723" inkscape:vp_z="64 : 32 : 1" inkscape:vp_y="0 : 1000 : 0" inkscape:vp_x="0 : 32 : 1" sodipodi:type="inkscape:persp3d" inkscape:persp3d-origin="32 : 21.333333 : 1">
		</inkscape:perspective>
</defs>
<sodipodi:namedview  showgrid="true" inkscape:cy="25.822073" inkscape:cx="-10.082463" inkscape:zoom="5.5" borderopacity="1.0" bordercolor="#666666" pagecolor="#ffffff" id="base" inkscape:window-maximized="0" inkscape:window-y="25" inkscape:window-x="0" inkscape:window-height="949" inkscape:window-width="1280" inkscape:grid-bbox="true" inkscape:document-units="px" inkscape:current-layer="layer1" inkscape:pageshadow="2" inkscape:pageopacity="0.0">
	</sodipodi:namedview>
<g display="none">
	
		<linearGradient id="SVGID_1_" gradientUnits="userSpaceOnUse" x1="932.2305" y1="573.2175" x2="932.2305" y2="512.8171" gradientTransform="matrix(9.375 0 0 -9.375 -8259.6641 5390.7871)">
		<stop  offset="0" style="stop-color:#6B6B6B"/>
		<stop  offset="0.471" style="stop-color:#686868"/>
		<stop  offset="0.8686" style="stop-color:#5D5D5D"/>
		<stop  offset="1" style="stop-color:#585858"/>
	</linearGradient>
	<path display="inline" fill="url(#SVGID_1_)" d="M480,583.125c-156.563,0-283.125-126.563-283.125-283.125
		c0-156.562,126.562-283.125,283.125-283.125S763.125,143.438,763.125,300C763.125,456.562,636.562,583.125,480,583.125z"/>
	<path display="inline" fill="#989898" d="M480,26.25c150.938,0,273.75,122.813,273.75,273.75
		c0,150.938-122.813,273.75-273.75,273.75S206.25,450.938,206.25,300C206.25,149.062,329.062,26.25,480,26.25 M480,7.5
		C318.75,7.5,187.5,138.75,187.5,300S318.75,592.5,480,592.5S772.5,461.25,772.5,300S641.25,7.5,480,7.5L480,7.5z"/>
</g>
<g>
	<path fill="#989898" d="M-244.688,276.563c0,48.75,0,96.563,0,145.313c0,4.688-0.938,10.313-2.813,14.063
		c-2.813,7.5-10.313,10.313-16.875,6.563c-3.75-1.875-7.5-4.688-10.313-7.5c-31.875-30.938-63.75-61.875-94.688-92.813
		c-2.813-2.813-4.688-3.75-8.438-3.75c-15,0-30,0-45,0c-12.188,0-17.813-5.625-17.813-17.813c0-29.062,0-58.124,0-86.249
		c0-11.25,5.625-16.875,16.875-16.875c15.938,0,30.938,0,46.875,0c1.875,0,4.688-0.938,6.563-2.813
		c31.875-30.938,63.75-61.875,95.625-93.75c4.688-3.75,8.438-8.438,15-8.438c7.5-0.938,12.188,1.875,15,8.438
		c0.938,3.75,1.875,7.5,1.875,11.25C-244.688,180-244.688,227.813-244.688,276.563L-244.688,276.563z"/>
	<path fill="#989898" d="M-46.875,276.563c-0.938,45.938-16.875,85.313-48.75,118.125c-12.188,12.187-26.25,22.5-42.188,30.937
		c-7.5,3.753-15,2.813-19.688-2.812c-4.688-4.688-5.625-13.126-0.938-18.75c1.875-2.813,4.688-4.688,7.5-5.625
		c29.063-15.938,51.563-39.375,63.75-70.313c16.875-44.063,13.125-86.25-13.125-126.563c-12.188-19.688-29.063-34.688-49.688-45
		c-4.688-2.813-9.375-6.563-10.313-12.188c-1.875-11.25,8.438-20.625,18.75-16.875c12.188,4.688,22.5,12.188,31.875,19.688
		c33.75,27.188,53.438,62.813,60,105.938c0,2.813,0.938,5.625,0.938,7.5C-47.813,267.188-47.813,271.875-46.875,276.563z"/>
	<path fill="#989898" d="M-107.813,282.188c-1.875,42.188-22.5,77.813-62.813,102.188c-7.5,4.688-15.938,2.813-20.625-3.75
		c-4.688-7.5-3.75-15,3.75-20.626c4.688-3.75,10.313-6.563,15-10.312c49.688-40.313,44.063-117.188-11.25-149.063
		c-6.563-3.75-11.25-8.438-10.313-16.875c0.938-9.375,10.313-15.938,19.688-12.188c13.125,5.625,24.375,15,34.688,26.25
		C-119.063,219.375-108.75,246.563-107.813,282.188z"/>
	<path fill="#989898" d="M-168.75,277.5c0,27.188-16.875,48.75-42.188,58.125c-9.375,2.813-17.813,0-20.625-8.438
		c-2.813-8.438,1.875-16.874,11.25-19.688c11.25-3.751,17.813-11.25,20.625-22.5c3.75-15-4.688-30-19.688-35.625
		c-4.688-1.875-9.375-3.75-11.25-8.438c-2.813-5.625-2.813-11.25,1.875-16.875s10.313-6.563,16.875-4.688
		C-187.5,226.875-168.75,251.25-168.75,277.5z"/>
</g>
<path fill="#E6E6E6" d="M301.954,80.143c5.865,0,10.753,0,16.618,0c16.619,0,28.349,11.73,28.349,28.348c0,6.843,0,13.685,0,19.549
	c0.978,10.754,7.82,18.574,17.595,21.505c9.774,3.91,19.55,1.955,27.37-5.864c3.91-3.911,7.82-8.798,12.708-12.708
	c11.73-10.754,28.348-10.754,39.1,0c9.775,8.797,18.573,17.595,27.37,27.37c9.775,9.775,9.775,25.415,0.978,36.167
	c-3.91,4.889-8.797,8.799-13.685,13.686c-7.82,7.82-9.775,17.595-5.865,27.37c3.91,10.753,12.708,16.618,24.438,17.595
	c5.864,0,11.73,0,17.595,0c15.64,0,26.394,10.753,26.394,26.394c0,12.708,0,25.415,0,38.122c0,15.64-11.729,26.394-27.37,26.394
	c-5.865,0-12.708,0-18.573,0c-10.753,0.978-18.574,6.842-22.483,17.596c-3.91,9.774-1.956,19.549,5.865,27.37
	c3.91,3.909,7.82,7.818,11.73,11.729c9.775,10.751,11.73,26.394,1.955,37.146c-9.774,10.752-19.549,20.528-30.302,30.303
	c-10.752,8.798-27.37,7.82-37.145-0.979c-3.91-3.91-7.819-7.818-11.73-11.729c-8.797-8.799-18.573-10.753-30.302-6.843
	c-10.754,3.911-16.619,13.686-16.619,25.415c0,5.865,0,11.729,0,18.572c-0.979,14.663-12.708,25.415-27.37,25.415
	c-11.73,0-22.483,0-34.213,0c-15.64,0-27.37-10.752-28.347-26.392c0-5.866,0-12.709,0-18.574c0-11.73-5.865-19.55-15.64-23.46
	c-9.775-4.889-19.55-2.933-28.348,3.91c-3.91,3.91-7.82,7.819-12.709,11.729c-11.729,11.729-29.324,11.729-41.055,0
	c-8.798-7.819-17.595-16.618-25.415-25.415c-10.754-10.753-10.754-27.369,0-39.1c3.91-3.91,7.82-7.82,11.729-11.729
	c7.82-7.82,9.775-17.596,5.865-28.35c-3.91-9.774-11.73-15.64-23.459-16.616c-5.865,0-11.73,0-17.595,0
	c-18.573,0-30.303-11.73-30.303-30.305c0-10.752,0-20.526,0-31.278c0-16.618,11.73-28.348,28.348-29.325c5.865,0,11.73,0,17.595,0
	c11.73,0,20.528-5.865,24.439-16.618c3.91-10.753,1.955-20.528-5.865-28.349c-3.911-3.91-8.799-7.82-12.708-12.708
	c-9.775-11.729-9.775-27.37,0.979-38.124c7.819-7.82,16.617-16.617,24.438-24.437c12.707-12.709,29.325-12.709,43.01,0
	c3.91,3.909,6.842,7.82,10.752,10.752c7.82,7.82,17.595,9.775,28.349,4.889c10.753-4.889,15.641-12.709,16.619-24.439
	c0-7.82,0-14.663,0.977-22.482c1.956-13.685,13.685-23.46,27.37-23.46C290.224,80.143,296.089,80.143,301.954,80.143z
	 M301.954,208.195c-50.831,0-91.885,41.055-91.885,91.885s41.055,91.885,91.885,91.885c49.853,0,91.885-41.055,91.885-90.907
	C393.839,250.228,352.784,208.195,301.954,208.195z"/>
</svg>
