<?xml version="1.0" encoding="utf-8"?>
<!-- Generator: Adobe Illustrator 16.0.3, SVG Export Plug-In . SVG Version: 6.00 Build 0)  -->
<!DOCTYPE svg PUBLIC "-//W3C//DTD SVG 1.1//EN" "http://www.w3.org/Graphics/SVG/1.1/DTD/svg11.dtd">
<svg version="1.1"
	 id="svg3715" xmlns:dc="http://purl.org/dc/elements/1.1/" xmlns:cc="http://creativecommons.org/ns#" xmlns:rdf="http://www.w3.org/1999/02/22-rdf-syntax-ns#" xmlns:svg="http://www.w3.org/2000/svg" xmlns:sodipodi="http://sodipodi.sourceforge.net/DTD/sodipodi-0.dtd" xmlns:inkscape="http://www.inkscape.org/namespaces/inkscape"
	 xmlns="http://www.w3.org/2000/svg" xmlns:xlink="http://www.w3.org/1999/xlink" x="0px" y="0px" width="600px" height="600px"
	 viewBox="0 0 600 600" enable-background="new 0 0 600 600" xml:space="preserve">
<defs>
	
	
		<inkscape:perspective  id="perspective3723" inkscape:vp_z="64 : 32 : 1" inkscape:vp_y="0 : 1000 : 0" inkscape:vp_x="0 : 32 : 1" sodipodi:type="inkscape:persp3d" inkscape:persp3d-origin="32 : 21.333333 : 1">
		</inkscape:perspective>
</defs>
<sodipodi:namedview  showgrid="true" inkscape:cy="25.822073" inkscape:cx="-10.082463" inkscape:zoom="5.5" borderopacity="1.0" bordercolor="#666666" pagecolor="#ffffff" id="base" inkscape:window-maximized="0" inkscape:window-y="25" inkscape:window-x="0" inkscape:window-height="949" inkscape:window-width="1280" inkscape:grid-bbox="true" inkscape:document-units="px" inkscape:current-layer="layer1" inkscape:pageshadow="2" inkscape:pageopacity="0.0">
	</sodipodi:namedview>
<g display="none">
	
		<linearGradient id="SVGID_1_" gradientUnits="userSpaceOnUse" x1="932.2305" y1="573.2175" x2="932.2305" y2="512.8171" gradientTransform="matrix(9.375 0 0 -9.375 -8259.6641 5390.7871)">
		<stop  offset="0" style="stop-color:#6B6B6B"/>
		<stop  offset="0.471" style="stop-color:#686868"/>
		<stop  offset="0.8686" style="stop-color:#5D5D5D"/>
		<stop  offset="1" style="stop-color:#585858"/>
	</linearGradient>
	<path display="inline" fill="url(#SVGID_1_)" d="M480,583.125c-156.563,0-283.125-126.563-283.125-283.125
		c0-156.562,126.562-283.125,283.125-283.125S763.125,143.438,763.125,300C763.125,456.562,636.562,583.125,480,583.125z"/>
	<path display="inline" fill="#989898" d="M480,26.25c150.938,0,273.75,122.813,273.75,273.75
		c0,150.938-122.813,273.75-273.75,273.75S206.25,450.938,206.25,300C206.25,149.062,329.062,26.25,480,26.25 M480,7.5
		C318.75,7.5,187.5,138.75,187.5,300S318.75,592.5,480,592.5S772.5,461.25,772.5,300S641.25,7.5,480,7.5L480,7.5z"/>
</g>
<g>
	<path fill="#989898" d="M-244.688,276.563c0,48.75,0,96.563,0,145.313c0,4.688-0.938,10.313-2.813,14.063
		c-2.813,7.5-10.313,10.313-16.875,6.563c-3.75-1.875-7.5-4.688-10.313-7.5c-31.875-30.938-63.75-61.875-94.688-92.813
		c-2.813-2.813-4.688-3.75-8.438-3.75c-15,0-30,0-45,0c-12.188,0-17.813-5.625-17.813-17.813c0-29.062,0-58.124,0-86.249
		c0-11.25,5.625-16.875,16.875-16.875c15.938,0,30.938,0,46.875,0c1.875,0,4.688-0.938,6.563-2.813
		c31.875-30.938,63.75-61.875,95.625-93.75c4.688-3.75,8.438-8.438,15-8.438c7.5-0.938,12.188,1.875,15,8.438
		c0.938,3.75,1.875,7.5,1.875,11.25C-244.688,180-244.688,227.813-244.688,276.563L-244.688,276.563z"/>
	<path fill="#989898" d="M-46.875,276.563c-0.938,45.938-16.875,85.313-48.75,118.125c-12.188,12.187-26.25,22.5-42.188,30.937
		c-7.5,3.753-15,2.813-19.688-2.812c-4.688-4.688-5.625-13.126-0.938-18.75c1.875-2.813,4.688-4.688,7.5-5.625
		c29.063-15.938,51.563-39.375,63.75-70.313c16.875-44.063,13.125-86.25-13.125-126.563c-12.188-19.688-29.063-34.688-49.688-45
		c-4.688-2.813-9.375-6.563-10.313-12.188c-1.875-11.25,8.438-20.625,18.75-16.875c12.188,4.688,22.5,12.188,31.875,19.688
		c33.75,27.188,53.438,62.813,60,105.938c0,2.813,0.938,5.625,0.938,7.5C-47.813,267.188-47.813,271.875-46.875,276.563z"/>
	<path fill="#989898" d="M-107.813,282.188c-1.875,42.188-22.5,77.813-62.813,102.188c-7.5,4.688-15.938,2.813-20.625-3.75
		c-4.688-7.5-3.75-15,3.75-20.626c4.688-3.75,10.313-6.563,15-10.312c49.688-40.313,44.063-117.188-11.25-149.063
		c-6.563-3.75-11.25-8.438-10.313-16.875c0.938-9.375,10.313-15.938,19.688-12.188c13.125,5.625,24.375,15,34.688,26.25
		C-119.063,219.375-108.75,246.563-107.813,282.188z"/>
	<path fill="#989898" d="M-168.75,277.5c0,27.188-16.875,48.75-42.188,58.125c-9.375,2.813-17.813,0-20.625-8.438
		c-2.813-8.438,1.875-16.874,11.25-19.688c11.25-3.751,17.813-11.25,20.625-22.5c3.75-15-4.688-30-19.688-35.625
		c-4.688-1.875-9.375-3.75-11.25-8.438c-2.813-5.625-2.813-11.25,1.875-16.875s10.313-6.563,16.875-4.688
		C-187.5,226.875-168.75,251.25-168.75,277.5z"/>
</g>
<path fill="#989898" d="M-325.313,465c5.625,0,10.313,0,15.938,0c15.938,0,27.188,11.25,27.188,27.188c0,6.563,0,13.125,0,18.75
	c0.938,10.313,7.5,17.813,16.875,20.625c9.375,3.75,18.75,1.875,26.25-5.625c3.75-3.75,7.5-8.438,12.188-12.188
	c11.25-10.313,27.188-10.313,37.5,0c9.375,8.438,17.813,16.875,26.25,26.25c9.375,9.375,9.375,24.375,0.938,34.688
	c-3.75,4.688-8.438,8.438-13.125,13.125c-7.5,7.5-9.375,16.875-5.625,26.25c3.75,10.313,12.188,15.938,23.438,16.875
	c5.625,0,11.25,0,16.875,0c15,0,25.313,10.313,25.313,25.313c0,12.188,0,24.375,0,36.563c0,15-11.25,25.313-26.25,25.313
	c-5.625,0-12.188,0-17.813,0c-10.313,0.938-17.813,6.563-21.563,16.875c-3.75,9.375-1.875,18.75,5.625,26.25
	c3.75,3.75,7.5,7.5,11.25,11.25c9.375,10.313,11.25,25.313,1.875,35.625c-9.375,10.313-18.75,19.688-29.063,29.063
	c-10.313,8.438-26.25,7.5-35.625-0.938c-3.75-3.75-7.5-7.5-11.25-11.25c-8.438-8.438-17.813-10.313-29.063-6.563
	c-10.313,3.75-15.938,13.125-15.938,24.375c0,5.625,0,11.25,0,17.813c-0.938,14.063-12.188,24.375-26.25,24.375
	c-11.25,0-21.563,0-32.813,0c-15,0-26.25-10.313-27.188-25.313c0-5.625,0-12.188,0-17.813c0-11.25-5.625-18.75-15-22.5
	c-9.375-4.688-18.75-2.813-27.188,3.75c-3.75,3.75-7.5,7.5-12.188,11.25c-11.25,11.25-28.125,11.25-39.375,0
	c-8.438-7.5-16.875-15.938-24.375-24.375c-10.313-10.313-10.313-26.25,0-37.5c3.75-3.75,7.5-7.5,11.25-11.25
	c7.5-7.5,9.375-16.875,5.625-27.188c-3.75-9.375-11.25-15-22.5-15.938c-5.625,0-11.25,0-16.875,0
	c-17.813,0-29.063-11.25-29.063-29.063c0-10.313,0-19.688,0-30c0-15.938,11.25-27.188,27.188-28.125c5.625,0,11.25,0,16.875,0
	c11.25,0,19.688-5.625,23.438-15.938c3.75-10.313,1.875-19.688-5.625-27.188c-3.75-3.75-8.438-7.5-12.188-12.188
	c-9.375-11.25-9.375-26.25,0.938-36.563c7.5-7.5,15.938-15.938,23.438-23.438c12.188-12.188,28.125-12.188,41.25,0
	c3.75,3.75,6.563,7.5,10.313,10.313c7.5,7.5,16.875,9.375,27.188,4.688c10.313-4.687,15-12.188,15.938-23.438
	c0-7.5,0-14.063,0.938-21.563c1.875-13.125,13.125-22.5,26.25-22.5C-336.563,465-330.938,465-325.313,465z M-325.313,587.813
	c-48.75,0-88.125,39.375-88.125,88.125c0,48.749,39.375,88.125,88.125,88.125c47.813,0,88.125-39.375,88.125-87.188
	C-238.125,627.188-277.5,587.813-325.313,587.813z"/>
<g>
	<path fill="#989898" d="M-541.875-143.437c0.938-19.688,9.375-31.875,25.313-38.438c21.563-9.375,43.125-17.813,64.688-26.25
		c25.313-10.313,49.688-20.625,75-30.938c23.438-9.375,44.063-0.938,53.438,22.5c31.875,75.938,63.75,151.875,94.688,226.875
		c9.375,23.438,0.938,45-22.5,55.313c-45.938,19.688-92.813,38.438-138.75,57.188c-22.5,9.375-43.125,0-52.5-22.5
		c-31.875-75.938-63.75-152.813-94.688-228.75C-540-134.062-540.938-139.687-541.875-143.437z"/>
	<path fill="#989898" d="M-184.688-41.25c0-57.188,0-114.375,0-173.438c11.25,5.625,23.438,9.375,33.75,15.938
		c15.938,9.375,20.625,30,13.125,47.813c-7.5,16.875-14.063,34.688-21.563,51.563c-7.5,17.813-15,36.563-22.5,54.375
		C-182.813-43.125-183.75-42.187-184.688-41.25L-184.688-41.25z"/>
	<path fill="#989898" d="M-290.625-242.812c12.188,0,23.438-0.938,34.688,0c16.875,1.875,30,16.875,31.875,33.75
		c0,1.875,0,4.688,0,6.563c0,38.438,0,75.938,0,114.375c0,0.938,0,2.813,0,3.75H-225
		C-246.563-136.875-269.063-190.312-290.625-242.812z"/>
</g>
<g>
	<path fill="#989898" d="M-99.375,908.438c85.313,42.188,170.625,42.188,255.938,0c0,1.875,0,2.813,0,4.688
		c0,41.25,0,82.5,0,124.688c0,50.625-33.75,92.813-82.5,104.063c-3.75,0.938-8.438,1.875-12.188,1.875
		c-28.125,0-56.25,3.75-83.438-3.75c-45-12.188-76.875-53.438-76.875-100.313c0-42.188,0-84.375,0-126.563
		C-99.375,911.25-99.375,910.313-99.375,908.438z"/>
	<path fill="#989898" d="M32.812,766.875c21.563-0.938,43.125,0,62.813,10.313c38.438,19.688,59.063,50.625,60.938,93.75
		c0,7.5,0,15,0,21.563c0,1.875-0.938,3.75-2.813,4.688c-36.563,19.688-75,30.938-117.188,31.875c-0.938,0-1.875,0-3.75,0
		c0-9.375,0-17.813,0-27.188c0-0.938,1.875-1.875,2.813-2.813c10.313-4.688,15-12.188,15-23.438c0-18.75,0-37.5,0-56.25
		c0-11.25-4.688-18.75-15-23.438c-0.938-0.938-2.813-2.813-2.813-4.688C33.75,783.75,33.75,775.313,32.812,766.875L32.812,766.875z"
		/>
	<path fill="#989898" d="M23.437,766.875c0,8.438,0,16.875,0,24.375c0,2.813-0.938,4.688-3.75,5.625
		c-9.375,3.75-14.063,11.25-14.063,20.625c0,19.688,0,39.375,0,59.063c0,10.313,4.688,16.875,14.063,21.563
		c0.938,0.938,2.813,1.875,2.813,2.813c0,8.438,0,17.813,0,28.125c-13.125-0.938-25.313-1.875-36.563-3.75
		c-29.063-4.688-56.25-14.063-82.5-28.125c-2.813-1.875-3.75-2.813-3.75-6.563c0-15.938-0.938-31.875,3.75-47.813
		c13.125-45,53.438-75.938,100.313-76.875C11.25,766.875,17.812,766.875,23.437,766.875L23.437,766.875z"/>
	<path fill="#989898" d="M40.312,835.313c0,5.625,0,11.249,0,16.875c0,7.5-4.688,12.188-12.188,12.188
		c-6.563,0-12.188-4.688-12.188-12.188c0-11.25,0-23.438,0-34.688c0-7.5,4.688-12.188,11.25-12.188S39.375,810,39.375,817.5v0.938
		C40.312,825,40.312,829.688,40.312,835.313z"/>
</g>
<g>
	<path fill="#989898" d="M417.187,830.625c0.938,0.938,0.938,1.875,0.938,2.813c6.563,9.375,7.5,20.625,7.5,31.875
		c0,10.313,0,19.688,0.938,30c0.938,5.625,3.75,12.188,7.5,16.875c4.688,7.5,12.188,10.313,20.625,9.375
		c5.625,0,9.375,1.875,12.188,6.563c3.75,5.625,8.438,11.25,13.125,16.875c-9.375-1.875-18.75-4.688-27.188-5.625
		c-10.313-1.875-20.625-2.813-30,0c-18.75,4.688-31.875,19.688-34.688,41.25c-0.938,13.125,0,25.313-0.938,38.438
		c0,9.375,0,19.688-1.875,29.063c-2.813,15-13.125,21.563-27.188,23.438c-31.875,4.688-55.313-7.5-73.125-32.813
		C271.875,1020,264.375,997.5,261.562,975c-7.5-50.625,5.625-96.563,29.063-140.625c17.813-32.813,41.25-61.875,71.25-85.313
		c31.875-24.375,67.5-37.5,108.75-34.688c29.063,1.875,56.25,11.25,80.625,26.25c27.188,15.938,50.625,35.625,66.563,62.813
		c9.375,15,15.938,31.875,15.938,50.625c0,15-5.625,28.125-13.125,40.313c-15.938,24.375-37.5,43.125-62.813,56.25l0,0
		c-11.25,5.625-12.188,5.625-19.688-4.688c-12.188-15.938-24.375-31.875-36.563-48.75c-0.938-0.938-1.875-3.75-0.938-4.688
		c8.438-21.563-1.875-37.5-16.875-47.813c-14.063-9.375-30-14.063-46.875-15C429.375,830.625,423.75,830.625,417.187,830.625z
		 M364.687,1005.938c-0.938-14.063-6.563-28.125-21.563-36.563c-18.75-12.188-39.375-3.75-46.875,16.875
		c-6.563,18.75,2.813,43.125,19.688,52.5c7.5,4.688,15.938,6.563,24.375,3.75C356.25,1038.75,364.687,1024.688,364.687,1005.938z
		 M547.5,857.813c0,0.938,0,1.875,0,3.75c1.875,17.813,17.813,29.063,34.688,23.438c17.813-6.563,29.063-28.125,22.5-46.875
		C600,824.063,585,817.5,570.937,822.188C557.812,826.875,547.5,841.875,547.5,857.813z M535.312,777.188c0-1.875,0-3.75,0-5.625
		c-2.813-21.563-23.438-31.875-41.25-20.625c-15,9.375-20.625,30.938-12.188,45.938c7.5,14.063,23.438,18.75,37.5,11.25
		C529.687,801.563,535.312,790.313,535.312,777.188z M387.187,777.188c0,13.125,7.5,26.25,16.875,32.813
		c13.125,8.438,28.125,3.75,32.813-11.25c5.625-14.063,0-33.75-12.188-43.125c-15-11.25-31.875-5.625-36.563,12.188
		C388.125,771.563,388.125,774.375,387.187,777.188z M368.437,847.5c0-18.75-19.688-34.688-38.438-30
		c-12.188,2.813-19.688,14.063-18.75,25.313c1.875,15.938,15.938,29.063,31.875,29.063
		C357.187,871.875,368.437,861.563,368.437,847.5z"/>
	<path fill="#989898" d="M608.437,1065c-3.75,2.813-7.5,5.625-12.188,9.375c-38.438-50.625-76.875-100.313-115.313-150.938
		c3.75-2.813,7.5-5.625,12.188-9.375C531.562,963.75,570,1014.375,608.437,1065z"/>
	<path fill="#989898" d="M437.812,843.75c16.875,1.875,32.813,5.625,44.063,19.688c8.438,10.313,6.563,26.25-4.688,35.625
		c-2.813,2.813-6.563,4.688-9.375,7.5c-9.375,6.563-25.313,0.938-28.125-10.313c-1.875-5.625-1.875-12.188-1.875-18.75
		C437.812,866.25,437.812,855,437.812,843.75z"/>
</g>
<path fill="#989898" d="M1121.25,714.375c-5.625-18.75-24.375-35.625-47.813-35.625c-86.25,0-172.5,0-257.813,0
	c-26.25,0-49.688,24.375-49.688,49.688c0.938,54.375,0,108.749,0,163.125c0,27.188,22.5,49.688,48.75,49.688
	c2.813,0,6.563,0,10.313,0c0,19.688,0,39.375,0,60c1.875-0.938,2.813-1.875,3.751-1.875c33.749-18.75,66.562-37.5,100.312-55.313
	c1.875-0.938,4.688-1.875,6.563-1.875c45.938,0,90.938,0,136.875,0c24.375,0,45.938-19.688,49.688-41.25
	c0-0.938,0-0.938,0.938-1.875c0-59.063,0-118.125,0-177.188C1122.187,718.125,1121.25,716.25,1121.25,714.375z"/>
<g>
	<path fill="#E6E6E6" d="M65.835,286.105c0-2.163,1.082-4.327,1.082-6.489c6.489-25.958,27.04-42.182,55.161-42.182
		c51.916,0,103.832,0,156.829,0c2.163,0,4.326,0,6.49,0c1.083-7.572,1.083-15.142,2.163-21.631
		c2.163-17.305,8.653-33.53,21.632-45.426c10.816-8.653,23.794-12.979,36.773-15.142c10.816-2.163,20.551-3.246,31.368-5.409
		c22.714-4.326,30.284-16.224,33.53-37.855c1.082-5.409,1.082-10.816,1.082-17.305c0-7.573,4.326-12.979,11.897-14.062
		c5.409-1.082,11.899,2.163,15.143,7.572c1.083,2.164,1.083,4.327,1.083,6.49c0,15.142-1.083,31.366-7.572,45.426
		c-8.653,20.55-23.795,32.448-45.426,36.774c-12.979,3.245-25.958,4.326-38.937,7.571c-20.55,4.327-30.284,14.062-32.447,35.694
		c-1.082,5.407-1.082,11.897-1.082,18.387c2.164,0,4.327,0,6.49,0c51.916,0,104.914,0,156.829,0c24.877,0,45.426,14.062,53,35.693
		c2.162,5.408,3.245,12.979,3.245,18.386c0,47.59,0,94.098,0,141.688c0,31.366-23.796,54.08-54.08,54.08
		c-118.973,0-239.03,0-358.003,0c-27.041,0-48.672-18.387-52.999-45.427c0-1.082-1.083-2.163-1.083-2.163
		C65.835,389.937,65.835,338.02,65.835,286.105z M424.92,399.673c-84.364,0-167.646,0-250.927,0c0,11.896,0,23.794,0,35.691
		c84.364,0,167.646,0,250.927,0C424.92,423.467,424.92,411.568,424.92,399.673z M228.072,328.288c11.898,0,22.714,0,33.53,0
		c1.082,0,2.163-2.164,2.163-3.247c0-7.57,0-16.223,0-23.794c0-8.652,0-8.652-8.652-8.652s-17.305,0-27.041,0
		C228.072,304.492,228.072,316.388,228.072,328.288z M281.068,309.9c0,5.408,0,9.735,0,15.141c0,2.164,1.083,3.247,3.246,3.247
		c9.735,0,20.551,0,30.285,0c2.163,0,3.246-1.083,3.246-3.247c0-9.733,0-20.549,0-30.283c0-2.163-1.083-3.245-3.246-3.245
		c-9.735,0-20.552,0-30.285,0c-2.163,0-3.246,1.082-3.246,3.245C281.068,300.166,281.068,305.573,281.068,309.9z M370.841,328.288
		c0-11.899,0-23.796,0-36.774c-11.899,0-22.714,0-33.53,0c-1.082,0-2.164,2.163-2.164,3.245c0,8.652,0,16.226,0,24.877
		c0,9.735-1.082,7.571,8.653,8.653C352.453,328.288,362.188,328.288,370.841,328.288z M407.615,345.593c0,11.897,0,23.796,0,35.692
		c11.898,0,23.794,0,35.693,0c0-11.896,0-22.714,0-33.529c0-1.082-2.163-2.163-2.163-2.163
		C429.246,345.593,418.43,345.593,407.615,345.593z M155.605,435.363c0-8.652,0-17.306,0-25.959c0-9.734,0-9.734-9.734-9.734
		c-8.652,0-17.305,0-25.958,0c0,12.979,0,23.794,0,35.691C131.811,435.363,143.709,435.363,155.605,435.363z M478.999,399.673
		c-11.898,0-22.714,0-33.53,0c-1.082,0-2.163,2.163-2.163,3.243c0,5.41,0,10.816,0,15.144c0,5.408,0,11.898,0,17.305
		c11.898,0,23.795,0,35.693,0C478.999,423.467,478.999,411.568,478.999,399.673z M155.605,292.594c-11.897,0-23.794,0-35.692,0
		c0,11.897,0,23.794,0,35.693c11.898,0,23.795,0,35.692,0C155.605,316.388,155.605,304.492,155.605,292.594z M173.993,291.514
		c0,12.978,0,23.794,0,36.774c10.816,0,22.715,0,33.531,0c1.081,0,2.163-2.164,2.163-2.164c0-10.815,0-20.551,0-31.366
		c0-1.082-1.083-2.163-2.163-2.163C196.705,291.514,185.889,291.514,173.993,291.514z M424.92,291.514c-11.898,0-22.714,0-33.53,0
		c-1.082,0-2.164,2.163-2.164,2.163c0,10.815,0,20.549,0,31.366c0,1.083,2.164,2.163,2.164,2.163c10.816,0,20.551,0,31.367,0
		c1.083,0,2.163-1.082,2.163-2.163C424.92,315.308,424.92,303.41,424.92,291.514z M478.999,291.514c-11.898,0-22.714,0-33.53,0
		c-1.082,0-2.163,2.163-2.163,2.163c0,10.815,0,20.549,0,31.366c0,1.083,1.083,2.163,2.163,2.163c10.816,0,22.714,0,33.53,0
		C478.999,316.388,478.999,304.492,478.999,291.514z M389.226,382.367c0-11.899,0-22.715,0-33.53c0-1.082-2.163-2.163-3.245-2.163
		c-4.326,0-8.652,0-11.897,0c-6.489,0-14.062,0-20.551,0c0,11.897,0,23.794,0,35.693
		C365.432,382.367,377.331,382.367,389.226,382.367z M138.3,345.593c0,11.897,0,23.796,0,35.692c11.898,0,23.794,0,35.693,0
		c0-11.896,0-23.795,0-35.692C162.094,345.593,150.198,345.593,138.3,345.593z M226.989,382.367c0-11.899,0-23.796,0-35.693
		c-11.897,0-23.794,0-35.692,0c0,11.897,0,23.794,0,35.693C204.277,382.367,215.093,382.367,226.989,382.367z M281.068,382.367
		c0-11.899,0-23.796,0-35.693c-11.897,0-23.794,0-35.692,0c0,11.897,0,23.794,0,35.693
		C258.356,382.367,269.172,382.367,281.068,382.367z M335.147,345.593c-11.897,0-23.794,0-35.692,0c0,11.897,0,23.796,0,35.692
		c11.897,0,23.795,0,35.692,0C335.147,369.388,335.147,358.571,335.147,345.593z"/>
</g>
</svg>
