<?xml version="1.0" encoding="utf-8"?>
<!-- Generator: Adobe Illustrator 16.0.3, SVG Export Plug-In . SVG Version: 6.00 Build 0)  -->
<!DOCTYPE svg PUBLIC "-//W3C//DTD SVG 1.1//EN" "http://www.w3.org/Graphics/SVG/1.1/DTD/svg11.dtd">
<svg version="1.1"
	 id="svg3715" xmlns:dc="http://purl.org/dc/elements/1.1/" xmlns:cc="http://creativecommons.org/ns#" xmlns:rdf="http://www.w3.org/1999/02/22-rdf-syntax-ns#" xmlns:svg="http://www.w3.org/2000/svg" xmlns:sodipodi="http://sodipodi.sourceforge.net/DTD/sodipodi-0.dtd" xmlns:inkscape="http://www.inkscape.org/namespaces/inkscape"
	 xmlns="http://www.w3.org/2000/svg" xmlns:xlink="http://www.w3.org/1999/xlink" x="0px" y="0px" width="600px" height="600px"
	 viewBox="0 0 600 600" enable-background="new 0 0 600 600" xml:space="preserve">
<defs>
	
	
		<inkscape:perspective  id="perspective3723" inkscape:vp_z="64 : 32 : 1" inkscape:vp_y="0 : 1000 : 0" inkscape:vp_x="0 : 32 : 1" sodipodi:type="inkscape:persp3d" inkscape:persp3d-origin="32 : 21.333333 : 1">
		</inkscape:perspective>
</defs>
<sodipodi:namedview  showgrid="true" inkscape:cy="25.822073" inkscape:cx="-10.082463" inkscape:zoom="5.5" borderopacity="1.0" bordercolor="#666666" pagecolor="#ffffff" id="base" inkscape:window-maximized="0" inkscape:window-y="25" inkscape:window-x="0" inkscape:window-height="949" inkscape:window-width="1280" inkscape:grid-bbox="true" inkscape:document-units="px" inkscape:current-layer="layer1" inkscape:pageshadow="2" inkscape:pageopacity="0.0">
	</sodipodi:namedview>
<g display="none">
	
		<linearGradient id="SVGID_1_" gradientUnits="userSpaceOnUse" x1="932.2305" y1="573.2175" x2="932.2305" y2="512.8171" gradientTransform="matrix(9.375 0 0 -9.375 -8259.6641 5390.7871)">
		<stop  offset="0" style="stop-color:#6B6B6B"/>
		<stop  offset="1" style="stop-color:#585858"/>
	</linearGradient>
	<path display="inline" fill="url(#SVGID_1_)" d="M480,583.125c-156.563,0-283.125-126.563-283.125-283.125
		c0-156.562,126.562-283.125,283.125-283.125S763.125,143.438,763.125,300C763.125,456.562,636.562,583.125,480,583.125z"/>
	<path display="inline" fill="#989898" d="M480,26.25c150.938,0,273.75,122.813,273.75,273.75
		c0,150.938-122.813,273.75-273.75,273.75S206.25,450.938,206.25,300C206.25,149.062,329.062,26.25,480,26.25 M480,7.5
		C318.75,7.5,187.5,138.75,187.5,300S318.75,592.5,480,592.5S772.5,461.25,772.5,300S641.25,7.5,480,7.5L480,7.5z"/>
</g>
<g>
	<path fill="#E6E6E6" d="M299.449,297.827c0,57.413,0,113.726,0,171.14c0,5.521-1.105,12.145-3.313,16.563
		c-3.312,8.833-12.146,12.146-19.875,7.729c-4.417-2.208-8.829-5.521-12.145-8.834c-37.541-36.435-75.08-72.871-111.516-109.309
		c-3.313-3.312-5.522-4.417-9.939-4.417c-17.666,0-35.331,0-52.997,0c-14.354,0-20.979-6.623-20.979-20.978
		c0-34.229,0-68.455,0-101.579c0-13.25,6.625-19.875,19.874-19.875c18.771,0,36.437,0,55.205,0c2.208,0,5.522-1.105,7.731-3.313
		c37.54-36.436,75.08-72.872,112.621-110.412c5.522-4.417,9.938-9.938,17.665-9.938c8.833-1.105,14.354,2.209,17.666,9.938
		c1.105,4.417,2.208,8.833,2.208,13.249C299.449,185.206,299.449,241.518,299.449,297.827L299.449,297.827z"/>
	<path fill="#E6E6E6" d="M531.314,298.932c-1.105,54.101-19.874,100.474-57.415,139.12c-14.354,14.354-30.915,26.499-49.687,36.437
		c-8.833,4.417-17.666,3.313-23.187-3.313c-5.521-5.522-6.625-15.458-1.104-22.083c2.208-3.313,5.521-5.522,8.833-6.625
		c34.228-18.771,60.726-46.373,75.081-82.811c19.873-51.894,15.457-101.579-15.458-149.056
		c-14.355-23.188-34.229-40.854-58.52-52.998c-5.521-3.313-11.041-7.73-12.146-14.355c-2.208-13.25,9.938-24.291,22.083-19.874
		c14.354,5.521,26.499,14.354,37.54,23.188c39.749,32.02,62.936,73.976,70.664,124.766c0,3.313,1.105,6.625,1.105,8.833
		C531.314,286.785,531.314,293.41,531.314,298.932z"/>
	<path fill="#E6E6E6" d="M460.651,304.452c-2.209,49.686-26.499,91.643-73.977,120.35c-8.833,5.521-18.77,3.313-24.291-4.416
		c-5.521-8.833-4.417-17.666,4.416-24.291c5.522-4.417,12.147-7.729,17.667-12.146c58.52-47.477,51.895-138.015-13.249-175.555
		c-7.729-4.417-13.25-9.938-12.146-19.874c1.104-11.042,12.146-18.771,23.187-14.355c15.458,6.625,28.708,17.666,40.854,30.916
		C447.401,230.477,459.545,263.6,460.651,304.452z"/>
	<path fill="#E6E6E6" d="M388.882,300.035c0,32.021-19.875,57.415-49.686,68.456c-11.041,3.313-20.978,0-24.29-9.938
		c-3.313-9.938,2.208-19.875,13.25-23.188c13.25-4.416,20.979-13.25,24.291-26.498c4.417-17.667-5.521-35.333-23.187-41.958
		c-5.522-2.208-11.042-4.417-13.25-9.937c-3.313-6.624-3.313-13.249,2.208-19.874c5.521-6.625,12.146-7.73,19.874-5.521
		C366.799,239.309,388.882,268.017,388.882,300.035z"/>
</g>
</svg>
